<mxfile host="app.diagrams.net" modified="2023-09-11T19:06:04.773Z" agent="Mozilla/5.0 (Windows NT 10.0; Win64; x64) AppleWebKit/537.36 (KHTML, like Gecko) Chrome/115.0.0.0 Safari/537.36 OPR/101.0.0.0 (Edition utorrent)" etag="CRoRlmZ2DfQQQhBap7Zi" version="21.7.4" type="device">
  <diagram name="1 oldal" id="fct63SDute6g90cOVYqC">
    <mxGraphModel dx="1374" dy="-1595" grid="1" gridSize="10" guides="1" tooltips="1" connect="1" arrows="1" fold="1" page="1" pageScale="1" pageWidth="827" pageHeight="1169" math="0" shadow="0">
      <root>
        <mxCell id="0" />
        <mxCell id="1" parent="0" />
        <mxCell id="ufe2QDix0_wHN3Fg4NYu-3" value="&lt;font style=&quot;font-size: 16px;&quot;&gt;SÖR&lt;/font&gt;" style="rounded=0;whiteSpace=wrap;html=1;" vertex="1" parent="1">
          <mxGeometry x="300" y="2710" width="120" height="60" as="geometry" />
        </mxCell>
        <mxCell id="ufe2QDix0_wHN3Fg4NYu-4" value="FAJTÁI" style="ellipse;whiteSpace=wrap;html=1;" vertex="1" parent="1">
          <mxGeometry x="90" y="2580" width="120" height="70" as="geometry" />
        </mxCell>
        <mxCell id="ufe2QDix0_wHN3Fg4NYu-5" value="&lt;font face=&quot;Times New Roman&quot; style=&quot;font-size: 15px;&quot;&gt;SZÍNE&lt;/font&gt;" style="ellipse;whiteSpace=wrap;html=1;" vertex="1" parent="1">
          <mxGeometry x="80" y="2720" width="120" height="80" as="geometry" />
        </mxCell>
        <mxCell id="ufe2QDix0_wHN3Fg4NYu-6" value="&lt;font style=&quot;font-size: 15px;&quot; face=&quot;Times New Roman&quot;&gt;MÁRKA&lt;/font&gt;" style="ellipse;whiteSpace=wrap;html=1;" vertex="1" parent="1">
          <mxGeometry x="324" y="2550" width="120" height="70" as="geometry" />
        </mxCell>
        <mxCell id="ufe2QDix0_wHN3Fg4NYu-7" value="&lt;font face=&quot;Times New Roman&quot; style=&quot;font-size: 15px;&quot;&gt;ALKOHOL TARTALMA&lt;/font&gt;" style="ellipse;whiteSpace=wrap;html=1;" vertex="1" parent="1">
          <mxGeometry x="530" y="2640" width="190" height="80" as="geometry" />
        </mxCell>
        <mxCell id="ufe2QDix0_wHN3Fg4NYu-8" value="&lt;font face=&quot;Times New Roman&quot; style=&quot;font-size: 15px;&quot;&gt;TÉRFOGATA&lt;/font&gt;" style="ellipse;whiteSpace=wrap;html=1;" vertex="1" parent="1">
          <mxGeometry x="250" y="2830" width="140" height="60" as="geometry" />
        </mxCell>
        <mxCell id="ufe2QDix0_wHN3Fg4NYu-9" value="&lt;font face=&quot;Times New Roman&quot; style=&quot;font-size: 15px;&quot;&gt;MÉRETE&lt;/font&gt;" style="ellipse;whiteSpace=wrap;html=1;" vertex="1" parent="1">
          <mxGeometry x="520" y="2800" width="120" height="70" as="geometry" />
        </mxCell>
        <mxCell id="ufe2QDix0_wHN3Fg4NYu-16" value="" style="endArrow=none;html=1;rounded=0;entryX=0.417;entryY=1;entryDx=0;entryDy=0;entryPerimeter=0;exitX=0.558;exitY=-0.017;exitDx=0;exitDy=0;exitPerimeter=0;" edge="1" parent="1" source="ufe2QDix0_wHN3Fg4NYu-3" target="ufe2QDix0_wHN3Fg4NYu-6">
          <mxGeometry width="50" height="50" relative="1" as="geometry">
            <mxPoint x="360" y="2710" as="sourcePoint" />
            <mxPoint x="410" y="2660" as="targetPoint" />
          </mxGeometry>
        </mxCell>
        <mxCell id="ufe2QDix0_wHN3Fg4NYu-17" value="" style="endArrow=none;html=1;rounded=0;entryX=0.021;entryY=0.688;entryDx=0;entryDy=0;entryPerimeter=0;exitX=1.017;exitY=0.15;exitDx=0;exitDy=0;exitPerimeter=0;" edge="1" parent="1" source="ufe2QDix0_wHN3Fg4NYu-3" target="ufe2QDix0_wHN3Fg4NYu-7">
          <mxGeometry width="50" height="50" relative="1" as="geometry">
            <mxPoint x="431" y="2729" as="sourcePoint" />
            <mxPoint x="444" y="2610" as="targetPoint" />
          </mxGeometry>
        </mxCell>
        <mxCell id="ufe2QDix0_wHN3Fg4NYu-18" value="" style="endArrow=none;html=1;rounded=0;entryX=1.017;entryY=0.883;entryDx=0;entryDy=0;entryPerimeter=0;exitX=0.017;exitY=0.343;exitDx=0;exitDy=0;exitPerimeter=0;" edge="1" parent="1" source="ufe2QDix0_wHN3Fg4NYu-9" target="ufe2QDix0_wHN3Fg4NYu-3">
          <mxGeometry width="50" height="50" relative="1" as="geometry">
            <mxPoint x="480" y="2869" as="sourcePoint" />
            <mxPoint x="493" y="2750" as="targetPoint" />
          </mxGeometry>
        </mxCell>
        <mxCell id="ufe2QDix0_wHN3Fg4NYu-19" value="" style="endArrow=none;html=1;rounded=0;entryX=0.45;entryY=1.05;entryDx=0;entryDy=0;entryPerimeter=0;exitX=0.6;exitY=0.033;exitDx=0;exitDy=0;exitPerimeter=0;" edge="1" parent="1" source="ufe2QDix0_wHN3Fg4NYu-8" target="ufe2QDix0_wHN3Fg4NYu-3">
          <mxGeometry width="50" height="50" relative="1" as="geometry">
            <mxPoint x="350" y="2900" as="sourcePoint" />
            <mxPoint x="363" y="2781" as="targetPoint" />
          </mxGeometry>
        </mxCell>
        <mxCell id="ufe2QDix0_wHN3Fg4NYu-20" value="" style="endArrow=none;html=1;rounded=0;entryX=1;entryY=1;entryDx=0;entryDy=0;exitX=0;exitY=0;exitDx=0;exitDy=0;" edge="1" parent="1" source="ufe2QDix0_wHN3Fg4NYu-3" target="ufe2QDix0_wHN3Fg4NYu-4">
          <mxGeometry width="50" height="50" relative="1" as="geometry">
            <mxPoint x="183.5" y="2729" as="sourcePoint" />
            <mxPoint x="196.5" y="2610" as="targetPoint" />
          </mxGeometry>
        </mxCell>
        <mxCell id="ufe2QDix0_wHN3Fg4NYu-21" value="" style="endArrow=none;html=1;rounded=0;entryX=1;entryY=0.625;entryDx=0;entryDy=0;exitX=0;exitY=0.633;exitDx=0;exitDy=0;exitPerimeter=0;entryPerimeter=0;" edge="1" parent="1" source="ufe2QDix0_wHN3Fg4NYu-3" target="ufe2QDix0_wHN3Fg4NYu-5">
          <mxGeometry width="50" height="50" relative="1" as="geometry">
            <mxPoint x="220" y="2840" as="sourcePoint" />
            <mxPoint x="233" y="2721" as="targetPoint" />
          </mxGeometry>
        </mxCell>
        <mxCell id="ufe2QDix0_wHN3Fg4NYu-22" value="&lt;font face=&quot;Times New Roman&quot; style=&quot;font-size: 15px;&quot;&gt;MAGYAR&lt;/font&gt;" style="ellipse;whiteSpace=wrap;html=1;" vertex="1" parent="1">
          <mxGeometry x="470" y="2450" width="120" height="70" as="geometry" />
        </mxCell>
        <mxCell id="ufe2QDix0_wHN3Fg4NYu-23" value="&lt;font face=&quot;Times New Roman&quot; style=&quot;font-size: 15px;&quot;&gt;KÜLFÖLDI&lt;/font&gt;" style="ellipse;whiteSpace=wrap;html=1;" vertex="1" parent="1">
          <mxGeometry x="240" y="2450" width="120" height="70" as="geometry" />
        </mxCell>
        <mxCell id="ufe2QDix0_wHN3Fg4NYu-24" value="" style="endArrow=none;html=1;rounded=0;entryX=0.092;entryY=0.875;entryDx=0;entryDy=0;entryPerimeter=0;exitX=0.933;exitY=0.286;exitDx=0;exitDy=0;exitPerimeter=0;" edge="1" parent="1" source="ufe2QDix0_wHN3Fg4NYu-6" target="ufe2QDix0_wHN3Fg4NYu-22">
          <mxGeometry width="50" height="50" relative="1" as="geometry">
            <mxPoint x="420" y="2570" as="sourcePoint" />
            <mxPoint x="470" y="2520" as="targetPoint" />
          </mxGeometry>
        </mxCell>
        <mxCell id="ufe2QDix0_wHN3Fg4NYu-25" value="" style="endArrow=none;html=1;rounded=0;entryX=0.7;entryY=1;entryDx=0;entryDy=0;entryPerimeter=0;exitX=0.267;exitY=0.043;exitDx=0;exitDy=0;exitPerimeter=0;" edge="1" parent="1" source="ufe2QDix0_wHN3Fg4NYu-6" target="ufe2QDix0_wHN3Fg4NYu-23">
          <mxGeometry width="50" height="50" relative="1" as="geometry">
            <mxPoint x="287.5" y="2590" as="sourcePoint" />
            <mxPoint x="332.5" y="2530" as="targetPoint" />
          </mxGeometry>
        </mxCell>
        <mxCell id="ufe2QDix0_wHN3Fg4NYu-26" value="&lt;font style=&quot;font-size: 16px;&quot;&gt;SÖR&lt;/font&gt;" style="rounded=0;whiteSpace=wrap;html=1;" vertex="1" parent="1">
          <mxGeometry x="290" y="3290" width="120" height="60" as="geometry" />
        </mxCell>
        <mxCell id="ufe2QDix0_wHN3Fg4NYu-27" value="SZŰRÉS" style="ellipse;whiteSpace=wrap;html=1;" vertex="1" parent="1">
          <mxGeometry x="60" y="3220" width="120" height="70" as="geometry" />
        </mxCell>
        <mxCell id="ufe2QDix0_wHN3Fg4NYu-28" value="&lt;font face=&quot;Times New Roman&quot; style=&quot;font-size: 15px;&quot;&gt;HŰTŐ&lt;/font&gt;" style="ellipse;whiteSpace=wrap;html=1;" vertex="1" parent="1">
          <mxGeometry x="80" y="3360" width="120" height="80" as="geometry" />
        </mxCell>
        <mxCell id="ufe2QDix0_wHN3Fg4NYu-29" value="&lt;font style=&quot;font-size: 15px;&quot; face=&quot;Times New Roman&quot;&gt;FŐZŐTARTÁLY&lt;/font&gt;" style="ellipse;whiteSpace=wrap;html=1;" vertex="1" parent="1">
          <mxGeometry x="339" y="3120" width="150" height="70" as="geometry" />
        </mxCell>
        <mxCell id="ufe2QDix0_wHN3Fg4NYu-30" value="&lt;font face=&quot;Times New Roman&quot; style=&quot;font-size: 15px;&quot;&gt;CEFRÉZŐ&lt;/font&gt;" style="ellipse;whiteSpace=wrap;html=1;" vertex="1" parent="1">
          <mxGeometry x="550" y="3270" width="190" height="80" as="geometry" />
        </mxCell>
        <mxCell id="ufe2QDix0_wHN3Fg4NYu-31" value="&lt;font face=&quot;Times New Roman&quot;&gt;&lt;span style=&quot;font-size: 15px;&quot;&gt;FORROVÍZ&lt;/span&gt;&lt;/font&gt;" style="ellipse;whiteSpace=wrap;html=1;" vertex="1" parent="1">
          <mxGeometry x="260" y="3420" width="140" height="60" as="geometry" />
        </mxCell>
        <mxCell id="ufe2QDix0_wHN3Fg4NYu-32" value="&lt;font face=&quot;Times New Roman&quot; style=&quot;font-size: 15px;&quot;&gt;MALÁTA&lt;/font&gt;" style="ellipse;whiteSpace=wrap;html=1;" vertex="1" parent="1">
          <mxGeometry x="480" y="3400" width="120" height="70" as="geometry" />
        </mxCell>
        <mxCell id="ufe2QDix0_wHN3Fg4NYu-33" value="" style="endArrow=none;html=1;rounded=0;entryX=0.417;entryY=1;entryDx=0;entryDy=0;entryPerimeter=0;exitX=0.558;exitY=-0.017;exitDx=0;exitDy=0;exitPerimeter=0;" edge="1" parent="1" source="ufe2QDix0_wHN3Fg4NYu-26" target="ufe2QDix0_wHN3Fg4NYu-29">
          <mxGeometry width="50" height="50" relative="1" as="geometry">
            <mxPoint x="350" y="3290" as="sourcePoint" />
            <mxPoint x="400" y="3240" as="targetPoint" />
          </mxGeometry>
        </mxCell>
        <mxCell id="ufe2QDix0_wHN3Fg4NYu-34" value="" style="endArrow=none;html=1;rounded=0;entryX=0.021;entryY=0.688;entryDx=0;entryDy=0;entryPerimeter=0;exitX=1.017;exitY=0.15;exitDx=0;exitDy=0;exitPerimeter=0;" edge="1" parent="1" source="ufe2QDix0_wHN3Fg4NYu-26" target="ufe2QDix0_wHN3Fg4NYu-30">
          <mxGeometry width="50" height="50" relative="1" as="geometry">
            <mxPoint x="421" y="3309" as="sourcePoint" />
            <mxPoint x="434" y="3190" as="targetPoint" />
          </mxGeometry>
        </mxCell>
        <mxCell id="ufe2QDix0_wHN3Fg4NYu-35" value="" style="endArrow=none;html=1;rounded=0;entryX=1.017;entryY=0.883;entryDx=0;entryDy=0;entryPerimeter=0;exitX=0.017;exitY=0.343;exitDx=0;exitDy=0;exitPerimeter=0;" edge="1" parent="1" source="ufe2QDix0_wHN3Fg4NYu-32" target="ufe2QDix0_wHN3Fg4NYu-26">
          <mxGeometry width="50" height="50" relative="1" as="geometry">
            <mxPoint x="470" y="3449" as="sourcePoint" />
            <mxPoint x="483" y="3330" as="targetPoint" />
          </mxGeometry>
        </mxCell>
        <mxCell id="ufe2QDix0_wHN3Fg4NYu-36" value="" style="endArrow=none;html=1;rounded=0;entryX=0.45;entryY=1.05;entryDx=0;entryDy=0;entryPerimeter=0;exitX=0.6;exitY=0.033;exitDx=0;exitDy=0;exitPerimeter=0;" edge="1" parent="1" source="ufe2QDix0_wHN3Fg4NYu-31" target="ufe2QDix0_wHN3Fg4NYu-26">
          <mxGeometry width="50" height="50" relative="1" as="geometry">
            <mxPoint x="340" y="3480" as="sourcePoint" />
            <mxPoint x="353" y="3361" as="targetPoint" />
          </mxGeometry>
        </mxCell>
        <mxCell id="ufe2QDix0_wHN3Fg4NYu-37" value="" style="endArrow=none;html=1;rounded=0;entryX=1;entryY=1;entryDx=0;entryDy=0;exitX=0;exitY=0;exitDx=0;exitDy=0;" edge="1" parent="1" source="ufe2QDix0_wHN3Fg4NYu-26" target="ufe2QDix0_wHN3Fg4NYu-27">
          <mxGeometry width="50" height="50" relative="1" as="geometry">
            <mxPoint x="173.5" y="3309" as="sourcePoint" />
            <mxPoint x="186.5" y="3190" as="targetPoint" />
          </mxGeometry>
        </mxCell>
        <mxCell id="ufe2QDix0_wHN3Fg4NYu-38" value="" style="endArrow=none;html=1;rounded=0;entryX=1;entryY=0.625;entryDx=0;entryDy=0;exitX=0;exitY=0.633;exitDx=0;exitDy=0;exitPerimeter=0;entryPerimeter=0;" edge="1" parent="1" source="ufe2QDix0_wHN3Fg4NYu-26" target="ufe2QDix0_wHN3Fg4NYu-28">
          <mxGeometry width="50" height="50" relative="1" as="geometry">
            <mxPoint x="210" y="3420" as="sourcePoint" />
            <mxPoint x="223" y="3301" as="targetPoint" />
          </mxGeometry>
        </mxCell>
        <mxCell id="ufe2QDix0_wHN3Fg4NYu-39" value="&lt;font face=&quot;Times New Roman&quot; style=&quot;font-size: 15px;&quot;&gt;ERJESZTÉS&lt;/font&gt;" style="ellipse;whiteSpace=wrap;html=1;" vertex="1" parent="1">
          <mxGeometry x="530" y="3160" width="120" height="70" as="geometry" />
        </mxCell>
        <mxCell id="ufe2QDix0_wHN3Fg4NYu-40" value="&lt;font face=&quot;Times New Roman&quot; style=&quot;font-size: 15px;&quot;&gt;ÉLESZTŐ&lt;/font&gt;" style="ellipse;whiteSpace=wrap;html=1;" vertex="1" parent="1">
          <mxGeometry x="150" y="3130" width="120" height="70" as="geometry" />
        </mxCell>
        <mxCell id="ufe2QDix0_wHN3Fg4NYu-41" value="" style="endArrow=none;html=1;rounded=0;entryX=0.092;entryY=0.875;entryDx=0;entryDy=0;entryPerimeter=0;exitX=0.925;exitY=0.017;exitDx=0;exitDy=0;exitPerimeter=0;" edge="1" parent="1" source="ufe2QDix0_wHN3Fg4NYu-26" target="ufe2QDix0_wHN3Fg4NYu-39">
          <mxGeometry width="50" height="50" relative="1" as="geometry">
            <mxPoint x="410" y="3150" as="sourcePoint" />
            <mxPoint x="460" y="3100" as="targetPoint" />
          </mxGeometry>
        </mxCell>
        <mxCell id="ufe2QDix0_wHN3Fg4NYu-42" value="" style="endArrow=none;html=1;rounded=0;entryX=0.7;entryY=1;entryDx=0;entryDy=0;entryPerimeter=0;exitX=0.25;exitY=0;exitDx=0;exitDy=0;" edge="1" parent="1" source="ufe2QDix0_wHN3Fg4NYu-26" target="ufe2QDix0_wHN3Fg4NYu-40">
          <mxGeometry width="50" height="50" relative="1" as="geometry">
            <mxPoint x="277.5" y="3170" as="sourcePoint" />
            <mxPoint x="322.5" y="3110" as="targetPoint" />
          </mxGeometry>
        </mxCell>
      </root>
    </mxGraphModel>
  </diagram>
</mxfile>
